<svg id="svg-defs" class="svg-hide" xmlns="http://www.w3.org/2000/svg"><defs><style>.cls-1{fill:#fff;}</style><style>.cls-1{fill:#fff;}</style><style>.cls-1{fill:#fff;}</style></defs><symbol viewBox="0 0 76.23347 100" id="icon-arrow-down"><title>arrow-down</title>  <path d="M86.73009,74.85489a160.63546,160.63546,0,0,0,1.38665,22.9684H72.47662L71.09,85.74653H70.49339C65.14834,93.2683,54.85327,100,41.18833,100c-19.405,0-29.30506-13.66495-29.30506-27.52338,0-23.16995,20.59013-35.84328,57.61851-35.64173V34.85166c0-7.72332-2.17672-22.17833-21.77523-21.97678-9.11,0-18.42148,2.57175-25.15318,7.12673L18.615,8.3199C26.53176,3.36988,38.21348,0,50.29829,0c29.30506,0,36.4318,20.00161,36.4318,39.01161V74.85489ZM69.89681,48.91164c-19.01-.395-40.59174,2.97485-40.59174,21.58175,0,11.48823,7.52983,16.63979,16.2367,16.63979,12.67333,0,20.79168-7.92486,23.565-16.04321a19.58211,19.58211,0,0,0,.79007-5.5466V48.91164Z" transform="translate(-11.88326 0)"/> </symbol><symbol viewBox="0 0 100 100" id="icon-arrow-left"><title>svg-icons</title><path class="cls-1" d="M0.36,49.36h0L0,49.73v1.46H0v0.36H0a0.36,0.36,0,0,0,.36.36L27,77.83a2.06,2.06,0,1,0,2.92-2.92l-23-23H98.18A1.34,1.34,0,0,0,100,50.46a2,2,0,0,0-1.82-2.19H6.57l23-23a2.21,2.21,0,0,0,0-2.92,1.9,1.9,0,0,0-1.46-.73,2.77,2.77,0,0,0-1.46.73l-26.28,27h0Z"/></symbol><symbol viewBox="0 0 100 100" id="icon-arrow-right"><title>svg-icons</title><path class="cls-1" d="M99.67,50.64h0l0.36-.36V48.81h0V48.45h0a0.36,0.36,0,0,0-.36-0.36L73,22.17a2.06,2.06,0,1,0-2.92,2.92l23,23H1.86A1.34,1.34,0,0,0,0,49.54a2,2,0,0,0,1.82,2.19H93.46l-23,23a2.21,2.21,0,0,0,0,2.92,1.9,1.9,0,0,0,1.46.73,2.77,2.77,0,0,0,1.46-.73l26.28-27h0Z"/></symbol><symbol viewBox="0 0 100 100" id="icon-arrow-up"><title>svg-icons</title><path class="cls-1" d="M50.64,0.36h0L50.27,0H48.45a0.36,0.36,0,0,0-.36.36L22.17,27a2.06,2.06,0,0,0,2.92,2.92l23-23V98.18A1.34,1.34,0,0,0,49.54,100a2,2,0,0,0,2.19-1.82V6.57l23,23a2.21,2.21,0,0,0,2.92,0,1.9,1.9,0,0,0,.73-1.46,2.77,2.77,0,0,0-.73-1.46l-27-26.28h0Z"/></symbol></svg>