<svg xmlns="http://www.w3.org/2000/svg" width="76.23347" height="100" viewBox="0 0 76.23347 100">
  <title>arrow-down</title>
  <path d="M86.73009,74.85489a160.63546,160.63546,0,0,0,1.38665,22.9684H72.47662L71.09,85.74653H70.49339C65.14834,93.2683,54.85327,100,41.18833,100c-19.405,0-29.30506-13.66495-29.30506-27.52338,0-23.16995,20.59013-35.84328,57.61851-35.64173V34.85166c0-7.72332-2.17672-22.17833-21.77523-21.97678-9.11,0-18.42148,2.57175-25.15318,7.12673L18.615,8.3199C26.53176,3.36988,38.21348,0,50.29829,0c29.30506,0,36.4318,20.00161,36.4318,39.01161V74.85489ZM69.89681,48.91164c-19.01-.395-40.59174,2.97485-40.59174,21.58175,0,11.48823,7.52983,16.63979,16.2367,16.63979,12.67333,0,20.79168-7.92486,23.565-16.04321a19.58211,19.58211,0,0,0,.79007-5.5466V48.91164Z" transform="translate(-11.88326 0)"/>
</svg>
